<svg xmlns="http://www.w3.org/2000/svg" id="Layer_2" width="722.726" height="1026.211" data-name="Layer 2"><defs><clipPath id="clippath"><path d="M357.918 1026.211c-13.422 0-26.844-.605-40.21-1.823a438 438 0 0 1-39.863-5.488 436 436 0 0 1-39.136-9.124c-6.3-1.779-12.762-3.477-18.875-5.83-52.007-20.01-100.906-44.72-139.667-85.638-36.218-38.233-62.38-86.222-73.37-137.825-9.467-44.455-8.548-91.09-.316-135.642 12.53-67.806 41.034-132.341 87.142-197.293 20.511-28.894 41.757-58.01 62.304-86.166 25.196-34.528 51.249-70.232 76.185-105.851C282.46 183.608 338.04 98.704 361.33 0c16.084 69.615 48.224 136.986 104.028 218.13 47.526 69.11 97.77 138.023 146.36 204.666l8.837 12.118c30.489 41.829 53.392 81.799 70.018 122.194 18.65 45.315 28.971 89.98 31.557 136.543 3.299 59.424-7.1 112.814-30.91 158.682-7.825 15.075-17.13 29.366-27.644 42.701-10.986 13.934-23.28 26.817-36.522 38.62a346 346 0 0 1-21.479 17.622c-7.46 5.643-15.117 11.588-23.342 16.07a467.5 467.5 0 0 1-56 25.864c-19.781 7.605-40.166 13.73-60.557 19.467-11.205 3.153-22.543 5.91-34.051 7.708-24.764 3.866-49.562 5.826-73.707 5.826" style="stroke-width:0px;fill:none"/></clipPath><style>.cls-3{stroke-width:0px}.cls-3{fill:#02597f}</style></defs><g id="Layer_1-2" data-name="Layer 1" style="clip-path:url(#clippath)"><path d="M159.51 980.248c-5.217-2.067-10.83-3.47-15.596-6.299C28.114 905.191-22.808 783.555 2.945 644.19 16.552 570.55 47.991 505.616 90.69 445.466c45.676-64.343 93.228-127.363 138.476-192 55.434-79.185 107.1-160.566 129.219-256.67.227-.985 1.36-1.762 2.401-3.043 1.485 1.41 3.335 2.307 3.619 3.558 18.294 80.693 57.734 151.627 103.916 218.781 50.33 73.187 102.808 144.915 155.138 216.703 56.916 78.08 96.834 162.885 102.262 260.657 6.713 120.922-42.043 214.166-144.488 279.031-3.275 2.074-7.506 2.637-11.29 3.905-6.55-9.271-.04-16.911 3.786-24.264 10.894-20.936 18.178-42.845 22.669-66.056 9.8-50.645-2.6-97.333-23.511-142.724-23.037-50.004-58.077-91.62-93.255-133.152-19.632-23.176-41.572-44.452-58.765-69.623-12.59-18.432-23.108-37.771-23.95-61.14-1.003-27.872 11.373-46.842 36.087-58.626 4.074-1.943 9.148-2.291 12.047-7.066-3.576-7.153-11.031-7.933-17.436-9.872-93.469-28.294-185.94 53.315-170.053 149.774 2.477 15.046 6.49 29.661 9.945 44.45 3.605 15.434-1.282 20.588-17.14 19.116-21.175-1.965-42.093-1.828-62.28 5.84-7.5 2.85-15.716 4.779-20.496 12.084 1.265 5.239 5.837 5.63 9.411 7.257 26.267 11.954 40.244 39.238 34.533 67.614-4.025 19.995-14.316 36.842-26.29 52.945-13.575 18.258-28.505 35.713-36.1 57.732-16.018 46.436-12.711 91.905 6.326 136.782 3.005 7.082 9.649 13.992 4.04 22.788" class="cls-3"/><path d="M159.51 980.248c-6.38-17.385-14.059-34.418-18.897-52.222-14.448-53.172-7.51-102.914 26.196-147.904 10.841-14.47 21.896-29.059 30.508-44.87 23.265-42.72 11.037-74.845-33.935-92.942-2.568-1.033-4.865-2.74-9.211-5.24 33.701-27.734 71.05-28.92 111.906-21.981-4.6-21.794-9.786-41.811-12.955-62.143-15.543-99.736 77.424-182.02 174.326-154.267 10.635 3.047 20.354 9.296 35.094 16.218-8.894 3.01-12 4.055-15.1 5.112-42.513 14.497-58.579 45.656-39.654 86.408 11.094 23.891 28.834 44.962 45.118 66.122 34.878 45.32 73.792 87.845 105.438 135.263 38.686 57.967 57.673 122.875 39.372 193.343-5.371 20.683-15.606 40.091-23.4 60.166-1.888 4.86-2.94 10.045-4.375 15.08.001-.002.243-.065.243-.065-1.799 1.985-4.991 1.28-6.686 3.465l-39.48 18.89c-5.692-7.57-1.154-14.6 1.536-21.42 9.82-24.9 13.319-50.691 11.659-77.274-1.463-23.42-9.898-43.72-24.9-60.305-9.53.888-10.893 7.52-14.163 11.965-24.591 33.42-58.607 42.471-97.66 37.18-16.286-2.206-19.448-11.959-7.367-23.889 16.551-16.345 30.27-33.914 35.344-57.143 10.482-48.002-.869-91.424-28.023-131.283-11.71-17.19-24.91-33.184-43.014-45.235-4.819 9.165-.926 16.596-.252 23.836 4.639 49.83-15.466 89.76-48.754 124.63-23.744 24.872-49.68 47.574-70.113 75.684-28.063 38.607-35.133 80.415-23.488 126.126 2.077 8.151 7.666 16.31 1.338 24.988l-52.946-22.896c-1.316-1.222-2.352-2.74-3.913-3.703z" style="stroke-width:0px;fill:#ec4237"/><path d="M216.16 1006.541c-3.724-21.68-9.303-43.234-10.79-65.067-3.227-47.362 21.628-83.376 51.712-116.34 20.82-22.814 43.269-44.175 63.522-67.461 29.518-33.941 41.826-74.407 33.582-118.212-.945-5.023-1.457-7.586-2.73-16.261 43.332 28.898 71.711 67.963 82.175 119.703 10.848 53.646-2.24 99.278-46.672 133.8 34.194 25.357 85.977 4.338 120.458-48.125 22.284 18.291 31.972 42.315 34.345 69.611 2.617 30.102-2.18 59.232-14.406 87.059-1.826 4.156-2.252 8.926-3.332 13.423-30.587 8.638-60.677 20.4-91.845 25.266-73.02 11.401-145.471 6.501-216.018-17.396" style="stroke-width:0px;fill:#faaf40"/><path d="m563.498 979.791 6.686-3.465zM159.302 979.942l3.911 3.702z" class="cls-3"/><path d="m513.036 465.072 24.465-9.031-14.484 21.686 16.149 20.476-25.1-7.073-14.484 21.686-1.03-26.058-25.1-7.073 24.464-9.032-1.029-26.057z" style="fill:#fdfefe;stroke-width:0px"/></g></svg>