<?xml version="1.0" encoding="UTF-8"?>
<svg id="Layer_2" data-name="Layer 2" xmlns="http://www.w3.org/2000/svg" width="722.7263622" height="1026.2114258" xmlns:xlink="http://www.w3.org/1999/xlink" viewBox="0 0 722.7263622 1026.2114258">
  <defs>
    <style>
      .cls-1 {
        fill: #fdfefe;
      }

      .cls-1, .cls-2, .cls-3, .cls-4, .cls-5 {
        stroke-width: 0px;
      }

      .cls-6 {
        clip-path: url(#clippath);
      }

      .cls-2 {
        fill: none;
      }

      .cls-3 {
        fill: #02597f;
      }

      .cls-4 {
        fill: #faaf40;
      }

      .cls-5 {
        fill: #ec4237;
      }
    </style>
    <clipPath id="clippath">
      <path class="cls-2" d="M357.9178061,1026.2114258c-13.4216893,0-26.8434844-.6053893-40.209878-1.8235218-13.362299-1.2177593-26.6687633-3.0478888-39.8627355-5.4880748-13.176491-2.4369529-26.2402977-5.4822772-39.1359805-9.1237322-6.2997411-1.7789072-12.7621395-3.4775563-18.8753295-5.8297811-52.0070057-20.0111792-100.9058371-44.7209016-139.6666149-85.6383862-36.2180307-38.2332553-62.3811882-86.2220078-73.3702145-137.8249073-9.4668849-44.4551408-8.5482104-91.0892292-.3157518-135.6421723,12.529398-67.8055343,41.0336615-132.3411814,87.1415887-197.2929533,20.5112707-28.8940513,41.7570516-58.0093336,62.3040236-86.1659484,25.1957486-34.5278324,51.2489134-70.2314664,76.1848034-105.8514073C282.4604898,183.6082381,338.0397944,98.7035402,361.3304986,0c16.0831398,69.6151802,48.2236678,136.9864463,104.027715,218.1308031,47.5260294,69.1089242,97.7700392,138.0217838,146.3600842,204.6649777l8.8363626,12.1185405c30.4889042,41.8284542,53.3927468,81.7986854,70.017844,122.1938204,18.6501213,45.3148903,28.9718919,89.9789636,31.5576019,136.5428139,3.2985652,59.4245071-7.1004596,112.8137405-30.9102937,158.6822922-7.8249689,15.0744435-17.1291673,29.3658502-27.6434276,42.7010901-10.9861935,13.933793-23.2794366,26.8166789-36.5226614,38.6194178-6.9155562,6.1633406-14.0902828,12.0344992-21.4782453,17.6223379-7.4610199,5.6430952-15.1176485,11.5879229-23.3428309,16.069261-18.068274,9.8441641-36.792479,18.4863693-55.9996151,25.8650331-19.7810539,7.604348-40.1658674,13.7287243-60.5570708,19.4666669-11.2052643,3.1530833-22.5432463,5.9104999-34.051373,7.7074521-24.7638214,3.8662744-49.5615883,5.8269192-73.7067825,5.8269192Z"/>
    </clipPath>
  </defs>
  <g id="Layer_1-2" data-name="Layer 1">
    <g class="cls-6">
      <g>
        <path class="cls-3" d="M159.5107794,980.2482206c-5.2181927-2.0671703-10.8312869-3.469373-15.5967373-6.2990453C28.113528,905.1906022-22.8075992,783.5545765,2.9449919,644.1881328c13.6068527-73.6368403,45.046224-138.5710734,87.745455-198.7212012,45.6757673-64.3430853,93.2271696-127.3626592,138.4757023-191.9989898C284.6000582,174.2820318,336.2665841,92.900757,358.3849247-3.2029603c.2267057-.9851258,1.3598595-1.7616179,2.4012069-3.0432861,1.4849626,1.410117,3.3345278,2.3069009,3.6184051,3.5586702,18.2943746,80.6924924,57.7344769,151.6270184,103.9162234,218.78104,50.3304343,73.1866409,102.8085506,144.914068,155.1385988,216.7030028,56.9159274,78.0801645,96.8333696,162.8841463,102.2612985,260.6560674,6.7131656,120.9225586-42.0428551,214.1666829-144.4875523,279.0315928-3.2748938,2.073487-7.5058059,2.6371732-11.291015,3.9047978-6.5498947-9.2713253-.0388638-16.9113333,3.7869222-24.2636633,10.8939187-20.9360416,18.177569-42.8449636,22.6688045-66.0559846,9.7997358-50.6452448-2.5993268-97.3329097-23.511122-142.7242571-23.0369403-50.0040986-58.0763287-91.6206761-93.2548989-133.1516033-19.6315904-23.1766002-41.5722601-44.4521382-58.7651715-69.6230525-12.5900093-18.4320546-23.1072807-37.7714137-23.9486881-61.1394424-1.0036077-27.8731817,11.3717405-46.8431203,36.0857677-58.6270511,4.074279-1.9426829,9.1487933-2.2908782,12.0473609-7.0663115-3.5765436-7.1528718-11.0313875-7.9325038-17.4356766-9.8711719-93.4692924-28.2941262-185.9398484,53.3149918-170.0538539,149.7735189,2.4778907,15.0456018,6.4896986,29.6614532,9.9450737,44.4508535,3.605745,15.433223-1.2813289,20.5872842-17.1394067,19.1155977-21.1756517-1.9650859-42.0933085-1.8286877-62.2811442,5.8402808-7.4987665,2.8486224-15.715015,4.7780563-20.4950795,12.0829039,1.2650018,5.2391226,5.8370698,5.6307587,9.4113115,7.2573652,26.2671621,11.9540537,40.2433417,39.2380148,34.5322582,67.6145526-4.0240933,19.9946375-14.3152478,36.8417331-26.2891903,52.9450092-13.5758178,18.2578098-28.5053926,35.7121125-36.1007565,57.7311488-16.0180031,46.4363883-12.7106157,91.9056776,6.3268559,136.7823737,3.0042923,7.0819962,9.648215,13.9918353,4.039323,22.7882296Z"/>
        <path class="cls-5" d="M159.5107794,980.2482206c-6.3804141-17.3853007-14.0595013-34.4178292-18.89746-52.2222812-14.4485143-53.1723573-7.5106772-102.9144195,26.1952962-147.9036922,10.8416452-14.4711023,21.8966401-29.0590103,30.5080578-44.8710753,23.2652788-42.7188435,11.0369547-74.8445633-33.9348739-92.9407081-2.5680377-1.033371-4.8649118-2.7406495-9.2111842-5.2403539,33.7015838-27.7343746,71.051256-28.9207385,111.9066228-21.981136-4.6004665-21.7938294-9.7867008-41.8113249-12.9552544-62.1433176-15.5430185-99.7359363,77.4241756-182.0200323,174.3255837-154.2662793,10.63579,3.0462605,20.354265,9.2955483,35.0949005,16.2179137-8.8941977,3.0104212-11.9996109,4.0546859-15.100581,5.1121461-42.5130218,14.4969848-58.5785073,45.6550701-39.6540139,86.4076501,11.094394,23.8909774,28.834611,44.9622394,45.1185048,66.1219353,34.8773487,45.3205253,73.7918791,87.8451032,105.4371591,135.2626159,38.6862187,57.9678113,57.6731833,122.874904,39.3727061,193.3429503-5.3714532,20.6832661-15.6057573,40.0916272-23.4009542,60.1659195-1.8874656,4.8606553-2.9398404,10.0456041-4.3746975,15.0799155.0014989-.0014989.2433005-.0643448.2433005-.0643448-1.7984963,1.9847319-4.9913799,1.2789733-6.6855434,3.4649835-13.1603334,6.2964758-26.3206668,12.5930586-39.4810003,18.8895344-5.6915713-7.5690253-1.1533352-14.5994172,1.5363527-21.4197517,9.819703-24.9006875,13.3189471-50.6912818,11.6589367-77.2738203-1.4624793-23.4200077-9.8978054-43.7205239-24.9005309-60.3053154-9.5299372.8884614-10.8917239,7.5209541-14.1617463,11.9648671-24.5914938,33.4200566-58.606986,42.4715818-97.6611265,37.1808548-16.2856068-2.206245-19.4475492-11.9593533-7.3666241-23.8890503,16.5518723-16.3449706,30.2712882-33.9140983,35.3440359-57.1430523,10.4826901-48.0020225-.8686014-91.4245369-28.0222712-131.2837306-11.7101128-17.1894292-24.9104877-33.1840364-43.014558-45.2350892-4.818741,9.1656542-.9261477,16.5963543-.2520796,23.8369106,4.6388217,49.8287296-15.4652373,89.7594413-48.7535047,124.629183-23.7440909,24.8722623-49.6794918,47.5739851-70.1129834,75.6846858-28.0630354,38.6066114-35.132774,80.4143497-23.4880499,126.125494,2.0765654,8.1514474,7.6658917,16.3110317,1.3374834,24.9886932-17.6485176-7.6322995-35.2970353-15.264599-52.9455529-22.8967914-1.3161779-1.2215876-2.3522524-2.7392041-3.9130155-3.7023419l.2086656.3058787Z"/>
        <path class="cls-4" d="M216.1606555,1006.5414751c-3.7241565-21.6804498-9.304088-43.2344584-10.7911918-65.0673658-3.2259661-47.3620541,21.6283672-83.376191,51.7125897-116.3408556,20.8195337-22.8129076,43.2686719-44.1738282,63.5214948-67.4604891,29.518743-33.9410246,41.8262022-74.4063095,33.5825723-118.2119484-.9451514-5.0224273-1.4567669-7.5856871-2.7292367-16.2611322,43.3308219,28.8983089,71.7105226,67.9636312,82.1738343,119.7033799,10.8487381,53.6456823-2.239649,99.278296-46.671827,133.7992803,34.1938055,25.3573108,85.9772441,4.3388308,120.4580853-48.1243954,22.2842346,18.2914275,31.972036,42.3147882,34.3452996,69.6113826,2.6171528,30.102017-2.1806573,59.2319029-14.4064386,87.0586192-1.8257438,4.1556462-2.2519612,8.9262616-3.3320119,13.4225819-30.5864279,8.6384765-60.6771545,20.4002988-91.8445057,25.2666285-73.019902,11.4009133-145.4716211,6.5009659-216.0186643-17.3956858Z"/>
        <path class="cls-3" d="M563.4983484,979.791062c2.2286215-1.1551015,4.4572966-2.3103102,6.685704-3.4651976-2.2286751,1.1552086-4.4571895,2.3102031-6.685704,3.4651976Z"/>
        <path class="cls-3" d="M159.3021138,979.9423419c1.3029021,1.2336857,2.6058042,2.4674785,3.9108475,3.7016995-1.3021794-1.2334716-2.6065001-2.4675855-3.9108475-3.7016995Z"/>
        <polygon class="cls-1" points="513.0362468 465.0718905 537.5006996 456.0407147 523.0169338 477.7269342 539.1660239 498.2032246 514.0654739 491.1297551 499.5817077 512.8159743 498.5524804 486.7581103 473.4519305 479.6846404 497.9163831 470.6534643 496.8871563 444.5956003 513.0362468 465.0718905"/>
      </g>
    </g>
  </g>
</svg>