<?xml version="1.0" encoding="UTF-8"?>
<svg id="Layer_2" data-name="Layer 2" xmlns="http://www.w3.org/2000/svg" width="128" height="128" viewBox="0 0 128 128">
  <defs>
    <style>
      .cls-1 {
        fill: none;
      }

      .cls-1, .cls-2 {
        stroke-width: 0px;
      }

      .cls-2 {
        fill: #333;
      }
    </style>
  </defs>
  <g id="Layer_1-2" data-name="Layer 1">
    <g>
      <g>
        <g>
          <path class="cls-2" d="M36.4294674,54.2546543c-9.828125,0-17.8242188-7.9960938-17.8242188-17.824707s7.9960938-17.824707,17.8242188-17.824707c9.8291016,0,17.8251953,7.9960938,17.8251953,17.824707s-7.9960938,17.824707-17.8251953,17.824707ZM36.4294674,23.6052402c-7.0712891,0-12.8242188,5.7529297-12.8242188,12.824707s5.7529297,12.824707,12.8242188,12.824707c7.0722656,0,12.8251953-5.7529297,12.8251953-12.824707s-5.7529297-12.824707-12.8251953-12.824707Z"/>
          <path class="cls-2" d="M36.4294674,14.882584c-1.3808594,0-2.5-1.1191406-2.5-2.5v-6.1621094c0-1.3808594,1.1191406-2.5,2.5-2.5s2.5,1.1191406,2.5,2.5v6.1621094c0,1.3808594-1.1191406,2.5-2.5,2.5Z"/>
          <path class="cls-2" d="M53.4333736,21.926041c-.6396484,0-1.2792969-.2441406-1.7675781-.7324219-.9765625-.9760742-.9765625-2.559082,0-3.5351562l4.3574219-4.3574219c.9765625-.9765625,2.5585938-.9765625,3.5351562,0,.9765625.9760742.9765625,2.559082,0,3.5351562l-4.3574219,4.3574219c-.4882812.4882812-1.1279297.7324219-1.7675781.7324219Z"/>
          <path class="cls-2" d="M66.6394283,38.9299472h-6.1621094c-1.3808594,0-2.5-1.1191406-2.5-2.5s1.1191406-2.5,2.5-2.5h6.1621094c1.3808594,0,2.5,1.1191406,2.5,2.5s-1.1191406,2.5-2.5,2.5Z"/>
          <path class="cls-2" d="M57.7907955,60.2912754c-.6396484,0-1.2792969-.2441406-1.7675781-.7324219l-4.3574219-4.3574219c-.9765625-.9760742-.9765625-2.559082,0-3.5351562.9765625-.9765625,2.5585938-.9765625,3.5351562,0l4.3574219,4.3574219c.9765625.9760742.9765625,2.559082,0,3.5351562-.4882812.4882812-1.1279297.7324219-1.7675781.7324219Z"/>
          <path class="cls-2" d="M36.4294674,69.1394199c-1.3808594,0-2.5-1.1191406-2.5-2.5v-6.1625977c0-1.3808594,1.1191406-2.5,2.5-2.5s2.5,1.1191406,2.5,2.5v6.1625977c0,1.3808594-1.1191406,2.5-2.5,2.5Z"/>
          <path class="cls-2" d="M15.0691158,60.2912754c-.6396484,0-1.2792969-.2441406-1.7675781-.7324219-.9765625-.9760742-.9765625-2.559082,0-3.5351562l4.3574219-4.3574219c.9765625-.9765625,2.5585938-.9765625,3.5351562,0,.9765625.9760742.9765625,2.559082,0,3.5351562l-4.3574219,4.3574219c-.4882812.4882812-1.1279297.7324219-1.7675781.7324219Z"/>
          <path class="cls-2" d="M12.3825924,38.9299472h-6.1621094c-1.3808594,0-2.5-1.1191406-2.5-2.5s1.1191406-2.5,2.5-2.5h6.1621094c1.3808594,0,2.5,1.1191406,2.5,2.5s-1.1191406,2.5-2.5,2.5Z"/>
          <path class="cls-2" d="M19.4265377,21.926041c-.6396484,0-1.2792969-.2441406-1.7675781-.7324219l-4.3574219-4.3574219c-.9765625-.9760742-.9765625-2.559082,0-3.5351562.9765625-.9765625,2.5585938-.9765625,3.5351562,0l4.3574219,4.3574219c.9765625.9760742.9765625,2.559082,0,3.5351562-.4882812.4882812-1.1279297.7324219-1.7675781.7324219Z"/>
        </g>
        <path class="cls-2" d="M86.4460689,119.3127597c-13.9541016,0-26.4189453-8.8681641-31.0166016-22.0668945-.375-1.0791016.0283203-2.2758789.9804688-2.9067383.9550781-.6303711,2.2138672-.534668,3.0595703.2319336,4.5986328,4.1655273,10.5214844,6.4599609,16.6796875,6.4599609,13.7197266,0,24.8818359-11.1621094,24.8818359-24.8823242,0-6.1577148-2.2939453-12.0810547-6.4599609-16.6787109-.7675781-.847168-.8632812-2.1064453-.2314453-3.059082.6308594-.9536133,1.8271484-1.3554688,2.90625-.9804688,13.1982422,4.5966797,22.0664062,17.0610352,22.0664062,31.015625,0,18.1225586-14.7441406,32.8666992-32.8662109,32.8666992ZM64.5818111,103.6877597c5.1845703,6.5761719,13.1855469,10.625,21.8642578,10.625,15.3652344,0,27.8662109-12.5009766,27.8662109-27.8666992,0-8.6791992-4.0478516-16.6791992-10.6240234-21.8637695,1.5351562,3.6328125,2.3427734,7.5576172,2.3427734,11.5664062,0,16.4770508-13.4052734,29.8823242-29.8818359,29.8823242-4.0087891,0-7.9345703-.8081055-11.5673828-2.3432617Z"/>
        <path class="cls-2" d="M13.0573971,122.7204746c-.6396484,0-1.2792969-.2441406-1.7675781-.7324219-.9765625-.9760742-.9765625-2.559082,0-3.5351562L118.4529049,11.2902988c.9765625-.9765625,2.5585938-.9765625,3.5351562,0,.9765625.9760742.9765625,2.559082,0,3.5351562L14.8249752,121.9880527c-.4882812.4882812-1.1279297.7324219-1.7675781.7324219Z"/>
      </g>
      <rect class="cls-1" width="128" height="128"/>
    </g>
  </g>
</svg>