<?xml version="1.0" encoding="UTF-8"?>
<svg id="Layer_2" data-name="Layer 2" xmlns="http://www.w3.org/2000/svg" width="128" height="128" viewBox="0 0 128 128">
  <defs>
    <style>
      .cls-1 {
        fill: none;
      }

      .cls-1, .cls-2 {
        stroke-width: 0px;
      }

      .cls-2 {
        fill: #333;
      }
    </style>
  </defs>
  <g id="Layer_1-2" data-name="Layer 1">
    <g>
      <g>
        <path class="cls-2" d="M60.3395364,116.5001324c-3.4775391,0-6.9765625-.3466797-10.4316406-1.0332031-21.734375-4.3183594-38.6259766-22.5966797-41.0771484-44.449707-1.7529297-15.6235352,3.5976562-30.940918,14.6806641-42.0249023,11.2421875-11.2436523,26.8710938-16.6645508,42.8496094-14.8720703,11.4394531,1.2827148,22.3017578,6.5151367,30.5859375,14.7333984.9804688.9726562.9863281,2.5551758.0136719,3.5356445-.9726562.980957-2.5566406.9853516-3.5351562.0141602-7.4873047-7.4282227-17.296875-12.1567383-27.6210938-13.3144531-14.4736328-1.6191406-28.5966797,3.2768555-38.7578125,13.4389648-10.0009766,10.0024414-14.8291016,23.828125-13.2470703,37.9316406,2.2109375,19.7133789,17.4599609,36.2045898,37.0830078,40.1030273,3.8613281.7675781,7.7773438,1.0625,11.6435547.8867188,1.2705078-.0595703,2.4277344-.5976562,3.2607422-1.5175781.7861328-.8701172,1.1855469-1.9892578,1.1240234-3.1533203-.1455078-2.7216797-.3271484-6.1103516-.3652344-8.3632812-.1015625-6.0341797,2.2480469-11.0371094,6.2851562-13.3818359,2.3876953-1.3862305,5.1328125-1.7167969,7.3388672-1.9819336,6.9082031-.8310547,13.0224609-2.0371094,19.2431641-3.7963867,3.9199219-1.1083984,6.8847656-4.4682617,7.3779297-8.3603516.5273438-4.159668.4785156-8.3999023-.1455078-12.6020508-.8847656-5.9545898-2.9335938-11.6191406-6.0898438-16.8369141-.7148438-1.1811523-.3369141-2.7182617.8447266-3.4331055,1.1787109-.7133789,2.7177734-.3364258,3.4326172.8452148,3.5019531,5.7875977,5.7753906,12.0761719,6.7578125,18.6904297.6914062,4.6538086.7451172,9.3525391.1611328,13.965332-.7548828,5.9467773-5.0634766,10.8701172-10.9775391,12.5429688-6.4775391,1.8320312-12.8349609,3.0869141-20.0068359,3.9492188-1.9316406.2324219-3.9287109.4726562-5.4248047,1.3417969-2.8828125,1.6738281-3.8515625,5.7324219-3.796875,8.9736328.0361328,2.1611328.2138672,5.4990234.3574219,8.1806641.1337891,2.5039062-.7216797,4.9101562-2.4091797,6.7744141-1.7333984,1.9150391-4.125,3.0361328-6.7353516,3.1572266-.8046875.0380859-1.6113281.0566406-2.4189453.0566406Z"/>
        <path class="cls-2" d="M61.9664895,44.797984c-5.7402344,0-10.4101562-4.6362305-10.4101562-10.3349609,0-5.6982422,4.6699219-10.3344727,10.4101562-10.3344727,5.7392578,0,10.4091797,4.6362305,10.4091797,10.3344727,0,5.6987305-4.6699219,10.3349609-10.4091797,10.3349609ZM61.9664895,29.1285504c-2.9833984,0-5.4101562,2.3930664-5.4101562,5.3344727,0,2.9418945,2.4267578,5.3349609,5.4101562,5.3349609,2.9824219,0,5.4091797-2.3930664,5.4091797-5.3349609,0-2.9414062-2.4267578-5.3344727-5.4091797-5.3344727Z"/>
        <path class="cls-2" d="M37.0289895,58.0982769c-5.7402344,0-10.4101562-4.6362305-10.4101562-10.3344727,0-5.6987305,4.6699219-10.3349609,10.4101562-10.3349609,5.7392578,0,10.4091797,4.6362305,10.4091797,10.3349609,0,5.6982422-4.6699219,10.3344727-10.4091797,10.3344727ZM37.0289895,42.4288433c-2.9833984,0-5.4101562,2.3930664-5.4101562,5.3349609,0,2.9414062,2.4267578,5.3344727,5.4101562,5.3344727,2.9824219,0,5.4091797-2.3930664,5.4091797-5.3344727,0-2.9418945-2.4267578-5.3349609-5.4091797-5.3349609Z"/>
        <path class="cls-2" d="M31.2741067,84.6993511c-5.7392578,0-10.4091797-4.6362305-10.4091797-10.3349609,0-5.6982422,4.6699219-10.3344727,10.4091797-10.3344727s10.4091797,4.6362305,10.4091797,10.3344727c0,5.6987305-4.6699219,10.3349609-10.4091797,10.3349609ZM31.2741067,69.0299175c-2.9824219,0-5.4091797,2.3930664-5.4091797,5.3344727,0,2.9418945,2.4267578,5.3349609,5.4091797,5.3349609s5.4091797-2.3930664,5.4091797-5.3349609c0-2.9414062-2.4267578-5.3344727-5.4091797-5.3344727Z"/>
        <path class="cls-2" d="M48.5387551,105.5997418c-5.7402344,0-10.4101562-4.6357422-10.4101562-10.3339844s4.6699219-10.3349609,10.4101562-10.3349609c5.7392578,0,10.4091797,4.6367188,10.4091797,10.3349609s-4.6699219,10.3339844-10.4091797,10.3339844ZM48.5387551,89.9307965c-2.9833984,0-5.4101562,2.3935547-5.4101562,5.3349609s2.4267578,5.3339844,5.4101562,5.3339844c2.9824219,0,5.4091797-2.3925781,5.4091797-5.3339844s-2.4267578-5.3349609-5.4091797-5.3349609Z"/>
        <path class="cls-2" d="M82.7262551,60.735484c-.6884766,0-1.3730469-.2822266-1.8671875-.8364258-.9189453-1.0307617-.828125-2.6113281.203125-3.5297852,33.7607422-30.09375,37.3710938-37.9580078,37.4511719-39.8930664-.0117188,0-.0244141-.0004883-.0361328-.0004883-2.8466797,0-14.4472656,7.2324219-40.7763672,35.4443359-.9423828,1.0097656-2.5224609,1.0654297-3.5341797.1220703-1.0087891-.9418945-1.0634766-2.5239258-.1220703-3.5332031,22.7958984-24.4248047,37.7548828-36.8754883,44.4638672-37.0073242,1.8476562-.0483398,2.9902344.7167969,3.6347656,1.3549805s1.4023438,1.7744141,1.3544922,3.5654297c-.1171875,4.4658203-4.8554688,13.1479492-39.109375,43.6796875-.4765625.4248047-1.0703125.6337891-1.6621094.6337891Z"/>
        <path class="cls-2" d="M90.4342629,53.2281597c-.8623047,0-1.7011719-.4467773-2.1650391-1.246582-2.0195312-3.4838867-4.2587891-5.6977539-6.6572266-6.5795898-1.2958984-.4765625-1.9599609-1.9135742-1.4833984-3.2089844.4775391-1.296875,1.9140625-1.9604492,3.2099609-1.4833984,3.5214844,1.2954102,6.6357422,4.2441406,9.2568359,8.7641602.6923828,1.1943359.2851562,2.7241211-.9091797,3.4169922-.3945312.2285156-.8261719.3374023-1.2519531.3374023Z"/>
        <path class="cls-2" d="M66.7311379,77.2061871c-2.1748047,0-4.4619141-.3735352-6.8388672-1.1191406-2.4033203-.753418-4.3378906-1.7397461-5.9140625-3.015625-1.9140625-1.5473633-3.1865234-3.8779297-4.0292969-5.4204102l-.1621094-.2973633c-.4208984-.765625-.4121094-1.6953125.0234375-2.4521484.4365234-.7568359,1.2353516-1.2314453,2.1083984-1.2519531.6806641-.0195312,3.6953125-.7163086,4.3466797-.9047852,1.9316406-.578125,3.0351562-1.0742188,3.6933594-2.1743164.4052734-.6767578.7207031-1.4853516,1.0556641-2.3408203.2666016-.6816406.5419922-1.3862305.8886719-2.0996094.8769531-1.8007812,2.1552734-3.2495117,3.8007812-4.3046875h0c2.6621094-1.7084961,6.0878906-2.2094727,9.4023438-1.3671875,3.328125.8442383,6.1347656,2.9594727,7.7001953,5.8027344,1.4541016,2.6411133,1.8320312,6.0756836.9619141,8.7490234-1.0634766,3.2729492-3.5449219,5.96875-4.9287109,7.2841797-2.3896484,2.2705078-5.2607422,3.8276367-8.3027344,4.5039062-1.2236328.2724609-2.4941406.4082031-3.8056641.4082031ZM55.9918801,67.959605c.3525391.4731445.7324219.9023438,1.1308594,1.2246094,1.0791016.8730469,2.4736328,1.5703125,4.265625,2.1323242,2.9638672.9291992,5.6796875,1.1328125,8.0634766.6005859,2.15625-.4790039,4.2119141-1.6020508,5.9433594-3.2475586,1.7451172-1.6586914,3.0976562-3.6049805,3.6181641-5.2060547.4414062-1.3564453.1943359-3.3710938-.5869141-4.7910156-.9003906-1.6352539-2.5585938-2.862793-4.5507812-3.3681641-1.9736328-.5004883-3.9697266-.2353516-5.4726562.7290039h0c-.8603516.5527344-1.5351562,1.3212891-2.0039062,2.284668-.2587891.5322266-.4863281,1.1147461-.7275391,1.7314453-.3945312,1.0092773-.8027344,2.0532227-1.421875,3.0883789-1.6386719,2.737793-4.2431641,3.7060547-6.5556641,4.3984375-.0146484.0043945-.7441406.1982422-1.7021484.4233398ZM67.0534035,53.9293316h.0097656-.0097656Z"/>
      </g>
      <rect class="cls-1" width="128" height="128"/>
    </g>
  </g>
</svg>