<?xml version="1.0" encoding="UTF-8"?>
<svg id="Layer_2" data-name="Layer 2" xmlns="http://www.w3.org/2000/svg" width="128" height="128" viewBox="0 0 128 128">
  <defs>
    <style>
      .cls-1 {
        fill: none;
      }

      .cls-1, .cls-2 {
        stroke-width: 0px;
      }

      .cls-2 {
        fill: #1a1a1a;
      }
    </style>
  </defs>
  <g id="Layer_1-2" data-name="Layer 1">
    <g>
      <g>
        <path class="cls-2" d="M63.9995394,80.9615582c-.4257812,0-.8515625-.1088867-1.234375-.3261719L7.7651644,49.4049175c-.7822266-.4438477-1.265625-1.2744141-1.265625-2.1738281s.4833984-1.7299805,1.265625-2.1738281L62.7651644,13.8263043c.765625-.4345703,1.703125-.4345703,2.46875,0l55,31.230957c.7822266.4438477,1.265625,1.2744141,1.265625,2.1738281s-.4833984,1.7299805-1.265625,2.1738281l-55,31.2304688c-.3828125.2172852-.8085938.3261719-1.234375.3261719ZM14.0630159,47.2310894l49.9365234,28.3554688,49.9365234-28.3554688-49.9365234-28.355957L14.0630159,47.2310894Z"/>
        <path class="cls-2" d="M63.9995394,95.3028668c-12.4775391,0-24.9560547-1.9355469-37.3466797-5.8066406-1.0439453-.3261719-1.7548828-1.2929688-1.7548828-2.3867188v-29.3325195c0-1.3808594,1.1191406-2.5,2.5-2.5s2.5,1.1191406,2.5,2.5v27.480957c22.6367188,6.7216797,45.5673828,6.7216797,68.2041016,0v-27.480957c0-1.3808594,1.1191406-2.5,2.5-2.5s2.5,1.1191406,2.5,2.5v29.3325195c0,1.09375-.7109375,2.0605469-1.7548828,2.3867188-12.390625,3.8710938-24.8691406,5.8066406-37.3476562,5.8066406Z"/>
        <path class="cls-2" d="M113.4995394,91.047984c-1.3808594,0-2.5-1.1191406-2.5-2.5v-38.1938477c0-1.3808594,1.1191406-2.5,2.5-2.5s2.5,1.1191406,2.5,2.5v38.1938477c0,1.3808594-1.1191406,2.5-2.5,2.5Z"/>
        <path class="cls-2" d="M113.4995394,114.5001324c-3.9013672,0-7.0761719-3.1748047-7.0761719-7.0761719v-14.2998047c0-3.9013672,3.1748047-7.0761719,7.0761719-7.0761719s7.0761719,3.1748047,7.0761719,7.0761719v14.2998047c0,3.9013672-3.1748047,7.0761719-7.0761719,7.0761719ZM113.4995394,91.047984c-1.1445312,0-2.0761719.9316406-2.0761719,2.0761719v14.2998047c0,1.1445312.9316406,2.0761719,2.0761719,2.0761719s2.0761719-.9316406,2.0761719-2.0761719v-14.2998047c0-1.1445312-.9316406-2.0761719-2.0761719-2.0761719Z"/>
      </g>
      <rect class="cls-1" width="128" height="128"/>
    </g>
  </g>
</svg>