<?xml version="1.0" encoding="UTF-8"?>
<svg id="Layer_2" data-name="Layer 2" xmlns="http://www.w3.org/2000/svg" width="128" height="128" viewBox="0 0 128 128">
  <defs>
    <style>
      .cls-1 {
        fill: none;
      }

      .cls-1, .cls-2 {
        stroke-width: 0px;
      }

      .cls-2 {
        fill: #1a1a1a;
      }
    </style>
  </defs>
  <g id="Layer_1-2" data-name="Layer 1">
    <g>
      <g>
        <path class="cls-2" d="M63.9998929,99.1462558c-19.3798828,0-35.1464844-15.7666016-35.1464844-35.1464844,0-19.3793945,15.7666016-35.1459961,35.1464844-35.1459961s35.1464844,15.7666016,35.1464844,35.1459961c0,19.3798828-15.7666016,35.1464844-35.1464844,35.1464844ZM63.9998929,33.8537754c-16.6230469,0-30.1464844,13.5234375-30.1464844,30.1459961,0,16.6230469,13.5234375,30.1464844,30.1464844,30.1464844s30.1464844-13.5234375,30.1464844-30.1464844c0-16.6225586-13.5234375-30.1459961-30.1464844-30.1459961Z"/>
        <path class="cls-2" d="M63.9998929,20.3313144c-1.3808594,0-2.5-1.1191406-2.5-2.5V5.9997715c0-1.3808594,1.1191406-2.5,2.5-2.5s2.5,1.1191406,2.5,2.5v11.831543c0,1.3808594-1.1191406,2.5-2.5,2.5Z"/>
        <path class="cls-2" d="M96.6463773,33.8537754c-.6396484,0-1.2792969-.2441406-1.7675781-.7324219-.9765625-.9760742-.9765625-2.559082,0-3.5351562l8.3662109-8.3662109c.9765625-.9765625,2.5585938-.9765625,3.5351562,0,.9765625.9760742.9765625,2.559082,0,3.5351562l-8.3662109,8.3662109c-.4882812.4882812-1.1279297.7324219-1.7675781.7324219Z"/>
        <path class="cls-2" d="M121.9998929,66.4997715h-11.8310547c-1.3808594,0-2.5-1.1191406-2.5-2.5s1.1191406-2.5,2.5-2.5h11.8310547c1.3808594,0,2.5,1.1191406,2.5,2.5s-1.1191406,2.5-2.5,2.5Z"/>
        <path class="cls-2" d="M105.0125882,107.5119785c-.6396484,0-1.2792969-.2441406-1.7675781-.7324219l-8.3662109-8.3657227c-.9765625-.9760742-.9765625-2.559082,0-3.5351562.9765625-.9765625,2.5585938-.9760742,3.5351562-.0004883l8.3662109,8.3662109c.9765625.9760742.9765625,2.559082,0,3.5351562-.4882812.4882812-1.1279297.7324219-1.7675781.7324219Z"/>
        <path class="cls-2" d="M63.9998929,124.4997715c-1.3808594,0-2.5-1.1191406-2.5-2.5v-11.8310547c0-1.3808594,1.1191406-2.5,2.5-2.5s2.5,1.1191406,2.5,2.5v11.8310547c0,1.3808594-1.1191406,2.5-2.5,2.5Z"/>
        <path class="cls-2" d="M22.9881741,107.5119785c-.6396484,0-1.2792969-.2441406-1.7675781-.7324219-.9765625-.9760742-.9765625-2.559082,0-3.5351562l8.3652344-8.3657227c.9765625-.9765625,2.5585938-.9760742,3.5351562-.0004883.9765625.9765625.9765625,2.5595703,0,3.5356445l-8.3652344,8.3657227c-.4882812.4882812-1.1279297.7324219-1.7675781.7324219Z"/>
        <path class="cls-2" d="M17.8309476,66.4997715H5.9998929c-1.3808594,0-2.5-1.1191406-2.5-2.5s1.1191406-2.5,2.5-2.5h11.8310547c1.3808594,0,2.5,1.1191406,2.5,2.5s-1.1191406,2.5-2.5,2.5Z"/>
        <path class="cls-2" d="M31.3534085,33.8537754c-.6396484,0-1.2792969-.2441406-1.7675781-.7324219l-8.3652344-8.3662109c-.9765625-.9760742-.9765625-2.559082,0-3.5356409.9765625-.9755896,2.5585711-.9760779,3.5351562.0004846l8.3652344,8.3662109c.9765625.9760742.9765625,2.559082,0,3.5356445-.4882812.487793-1.1279297.7319336-1.7675781.7319336Z"/>
      </g>
      <rect class="cls-1" width="128" height="128"/>
    </g>
  </g>
</svg>