<?xml version="1.0" encoding="UTF-8"?>
<svg id="Layer_2" data-name="Layer 2" xmlns="http://www.w3.org/2000/svg" width="128" height="128" viewBox="0 0 128 128">
  <defs>
    <style>
      .cls-1 {
        fill: none;
      }

      .cls-1, .cls-2 {
        stroke-width: 0px;
      }

      .cls-2 {
        fill: #333;
      }
    </style>
  </defs>
  <g id="Layer_1-2" data-name="Layer 1">
    <g>
      <g>
        <path class="cls-2" d="M86.743057,52.1241558c-12.5478516,0-22.7558594-10.2333984-22.7558594-22.8120117s10.2080078-22.8120117,22.7558594-22.8120117,22.7568359,10.2333984,22.7568359,22.8120117-10.2089844,22.8120117-22.7568359,22.8120117ZM86.743057,11.5001324c-9.7910156,0-17.7558594,7.9902344-17.7558594,17.8120117s7.9648438,17.8120117,17.7558594,17.8120117,17.7568359-7.9902344,17.7568359-17.8120117-7.9658203-17.8120117-17.7568359-17.8120117Z"/>
        <g>
          <path class="cls-2" d="M30.805557,96.2032574c-.6416016,0-1.2832031-.2460938-1.7705078-.734375l-8.2851562-8.3076172c-.9394531-.9423828-.9765625-2.4555664-.0839844-3.4423828l44.9775391-49.7451172,3.7089844,3.3535156-43.3857422,47.984375,4.9238281,4.9365234,47.0039062-42.7324219,3.3632812,3.6992188-48.7705078,44.3378906c-.4775391.4345703-1.0800781.6503906-1.6816406.6503906Z"/>
          <rect class="cls-2" x="59.9622141" y="45.5343667" width="5.0001622" height="17.6424689" transform="translate(-20.1482067 59.9747354) rotate(-44.9215096)"/>
          <path class="cls-2" d="M37.9481351,121.4903668c-4.4501953.0009766-8.8388672-1.4550781-12.3583984-4.4199219-4.3164062-3.6357422-6.8271484-8.7285156-7.0703125-14.3417969-.2412109-5.5371094,1.8623047-10.9609375,5.7695312-14.8789062.9755859-.9765625,2.5585938-.9794922,3.5361328-.0048828.9775391.9755859.9794922,2.5585938.0048828,3.5361328-2.9228516,2.9296875-4.4951172,6.9873047-4.3154297,11.1308594.1816406,4.1982422,2.0625,8.0107422,5.2958984,10.734375,5.7929688,4.8798828,14.8154297,4.203125,20.5390625-1.5371094l24.7001953-24.7685547c2.390625-2.3964844,5.5693359-3.7167969,8.9511719-3.7167969,3.3828125,0,6.5625,1.3198242,8.953125,3.7167969,4.9316406,4.9453125,4.9316406,12.9902344.0009766,17.9355469l-2.8730469,2.8808594c-.9746094.9765625-2.5576172.9794922-3.5361328.0048828-.9775391-.9755859-.9794922-2.5585938-.0048828-3.5361328l2.8730469-2.8808594c2.9902344-2.9980469,2.9902344-7.875.0009766-10.8720703-1.4462891-1.4501953-3.3691406-2.2490234-5.4130859-2.2490234s-3.9658203.7988281-5.4111328,2.2480469l-24.7001953,24.7685547c-4.1240234,4.1347656-9.5771484,6.25-14.9423828,6.25Z"/>
        </g>
        <path class="cls-2" d="M100.3641507,46.1358746c-14.5380859-3.9458008-26.3066406-14.7792969-31.4785156-28.9804688l4.6972656-1.7109375c4.6171875,12.6757812,15.1191406,22.3452148,28.0917969,25.8662109l-1.3105469,4.8251953Z"/>
      </g>
      <rect class="cls-1" width="128" height="128"/>
    </g>
  </g>
</svg>