<?xml version="1.0" encoding="UTF-8"?>
<svg id="Layer_2" data-name="Layer 2" xmlns="http://www.w3.org/2000/svg" width="128" height="128" viewBox="0 0 128 128">
  <defs>
    <style>
      .cls-1 {
        fill: none;
      }

      .cls-1, .cls-2 {
        stroke-width: 0px;
      }

      .cls-2 {
        fill: #333;
      }
    </style>
  </defs>
  <g id="Layer_1-2" data-name="Layer 1">
    <g>
      <path class="cls-2" d="M62.462856,119.4997715c-24.2158203,0-45.8457031-15.3896484-53.8242188-38.2954102-.375-1.0791016.0283203-2.2758789.9814453-2.9067383.953125-.6303711,2.2138672-.534668,3.0585938.2319336,8.6240234,7.8139648,19.7363281,12.1171875,31.2910156,12.1171875,25.7373047,0,46.6767578-20.9394531,46.6767578-46.6772461,0-11.5541992-4.3027344-22.6669922-12.1162109-31.2910156-.7675781-.847168-.8632812-2.1064453-.2314453-3.059082.6308594-.9536133,1.8261719-1.3569336,2.90625-.9804688,22.9052734,7.9780273,38.2949219,29.6083984,38.2949219,53.8237305,0,31.4501953-25.5869141,57.0371094-57.0371094,57.0371094ZM17.2626607,88.1628574c9.125,16.0581055,26.2998047,26.3369141,45.2001953,26.3369141,28.6933594,0,52.0371094-23.34375,52.0371094-52.0371094,0-18.9003906-10.2792969-36.074707-26.3369141-45.199707,4.8701172,8.0175781,7.4833984,17.2270508,7.4833984,26.706543,0,28.4951172-23.1816406,51.6772461-51.6767578,51.6772461-9.4794922,0-18.6894531-2.6137695-26.7070312-7.4838867Z"/>
      <rect class="cls-1" width="128" height="128"/>
    </g>
  </g>
</svg>