<?xml version="1.0" encoding="UTF-8"?>
<svg id="Layer_2" data-name="Layer 2" xmlns="http://www.w3.org/2000/svg" width="128" height="128" viewBox="0 0 128 128">
  <defs>
    <style>
      .cls-1 {
        fill: none;
      }

      .cls-1, .cls-2 {
        stroke-width: 0px;
      }

      .cls-2 {
        fill: #333;
      }
    </style>
  </defs>
  <g id="Layer_1-2" data-name="Layer 1">
    <g>
      <g>
        <path class="cls-2" d="M87.1532857,32.7828472H18.0263326c-4.1503906,0-7.5263672-3.3764648-7.5263672-7.5263672v-4.2299805c0-4.1499023,3.3759766-7.5263672,7.5263672-7.5263672h69.1269531c4.1503906,0,7.5263672,3.3764648,7.5263672,7.5263672v4.2299805c0,4.1499023-3.3759766,7.5263672-7.5263672,7.5263672ZM18.0263326,18.5001324c-1.3925781,0-2.5263672,1.1333008-2.5263672,2.5263672v4.2299805c0,1.3930664,1.1337891,2.5263672,2.5263672,2.5263672h69.1269531c1.3925781,0,2.5263672-1.1333008,2.5263672-2.5263672v-4.2299805c0-1.3930664-1.1337891-2.5263672-2.5263672-2.5263672H18.0263326Z"/>
        <path class="cls-2" d="M77.1200826,114.5001324H27.9833638c-7.4023438,0-13.4248047-6.0224609-13.4248047-13.4248047V30.2828472c0-1.3808594,1.1191406-2.5,2.5-2.5h70.9863281c1.3808594,0,2.5,1.1191406,2.5,2.5v70.7924805c0,7.4023438-6.0224609,13.4248047-13.4248047,13.4248047ZM19.5585592,32.7828472v68.2924805c0,4.6455078,3.7792969,8.4248047,8.4248047,8.4248047h49.1367188c4.6455078,0,8.4248047-3.7792969,8.4248047-8.4248047V32.7828472H19.5585592Z"/>
        <path class="cls-2" d="M104.5810201,102.5909527h-16.6347656c-1.3808594,0-2.5-1.1191406-2.5-2.5v-13.1845703c0-1.3808594,1.1191406-2.5,2.5-2.5h9.6728516c1.6484375,0,2.9892578-1.387207,2.9892578-3.0927734v-22.4321289c0-1.7060547-1.3408203-3.09375-2.9892578-3.09375h-9.6728516c-1.3808594,0-2.5-1.1191406-2.5-2.5v-13.1835938c0-1.3808594,1.1191406-2.5,2.5-2.5h16.6347656c7.1230469,0,12.9189453,5.8842773,12.9189453,13.1166992v38.7529297c0,7.2324219-5.7958984,13.1171875-12.9189453,13.1171875ZM90.4462545,97.5909527h14.1347656c4.3662109,0,7.9189453-3.6416016,7.9189453-8.1171875v-38.7529297c0-4.4755859-3.5527344-8.1166992-7.9189453-8.1166992h-14.1347656v8.1835938h7.1728516c4.4052734,0,7.9892578,3.6308594,7.9892578,8.09375v22.4321289c0,4.4619141-3.5839844,8.0927734-7.9892578,8.0927734h-7.1728516v8.1845703Z"/>
      </g>
      <rect class="cls-1" width="128" height="128"/>
    </g>
  </g>
</svg>