<?xml version="1.0" encoding="UTF-8"?>
<svg id="Layer_2" data-name="Layer 2" xmlns="http://www.w3.org/2000/svg" width="128" height="128" viewBox="0 0 128 128">
  <defs>
    <style>
      .cls-1 {
        fill: none;
      }

      .cls-1, .cls-2 {
        stroke-width: 0px;
      }

      .cls-2 {
        fill: #1a1a1a;
      }
    </style>
  </defs>
  <g id="Layer_1-2" data-name="Layer 1">
    <g>
      <rect class="cls-1" width="128" height="128"/>
      <rect class="cls-1" width="128" height="128"/>
      <g>
        <path class="cls-2" d="M64.0000599,30.9862113c8.7242432,0,15.8220215,7.0977325,15.8220215,15.8220673s-7.0977783,15.8220673-15.8220215,15.8220673c-8.7243652,0-15.8221436-7.0977325-15.8221436-15.8220673s7.0977783-15.8220673,15.8221436-15.8220673M64.0000599,25.9862113c-11.4997559,0-20.8221436,9.3223572-20.8221436,20.8220673s9.3223877,20.8220673,20.8221436,20.8220673c11.4996338,0,20.8220215-9.3223572,20.8220215-20.8220673s-9.3223877-20.8220673-20.8220215-20.8220673h0Z"/>
        <path class="cls-2" d="M64.0000599,14.0000205c18.0905762,0,32.8082275,14.7177277,32.8082275,32.8082581,0,13.9931335-20.9327393,46.7055206-32.8082275,63.617157-11.8754883-16.9116364-32.8083496-49.6240234-32.8083496-63.617157,0-18.0905304,14.7177734-32.8082581,32.8083496-32.8082581M64.0000599,9.0000205c-20.8809814,0-37.8083496,16.9273071-37.8083496,37.8082581s37.8083496,72.1917114,37.8083496,72.1917114c0,0,37.8082275-51.3107605,37.8082275-72.1917114S84.8809192,9.0000205,64.0000599,9.0000205h0Z"/>
      </g>
    </g>
  </g>
</svg>