<?xml version="1.0" encoding="UTF-8"?>
<svg id="Layer_2" data-name="Layer 2" xmlns="http://www.w3.org/2000/svg" width="128" height="128" viewBox="0 0 128 128">
  <defs>
    <style>
      .cls-1 {
        fill: none;
      }

      .cls-1, .cls-2 {
        stroke-width: 0px;
      }

      .cls-2 {
        fill: #1a1a1a;
      }
    </style>
  </defs>
  <g id="Layer_1-2" data-name="Layer 1">
    <g>
      <path class="cls-2" d="M24.9997799,119.5001324c-.546875,0-1.0947266-.1787109-1.5517578-.5400391-.9707031-.7675781-1.2324219-2.1318359-.6162109-3.2050781l28.0849609-48.8862305h-25.9169922c-.9287109,0-1.78125-.5151367-2.2128906-1.3374023-.4326172-.8222656-.3730469-1.8164062.1542969-2.5810547L59.7146236,9.5816754c.4667969-.6772461,1.2363281-1.081543,2.0585938-1.081543h35.9736328c.9287109,0,1.78125.5151367,2.2128906,1.3374023.4326172.8222656.3730469,1.8164062-.1542969,2.5810547l-19.9316406,28.9267578h23.1259766c1.0253906,0,1.9472656.6264648,2.3251953,1.5805664.3769531.9536133.1328125,2.0410156-.6152344,2.7431641L26.7097408,118.8233746c-.4785156.4492188-1.09375.6767578-1.7099609.6767578ZM29.7585689,61.8687847h25.4775391c.8925781,0,1.7167969.4755859,2.1640625,1.2475586.4462891.7724609.4482422,1.7241211.0039062,2.4975586l-21.8828125,38.0913086,61.1582031-57.3598633h-21.5644531c-.9287109,0-1.78125-.5151367-2.2128906-1.3374023-.4326172-.8222656-.3730469-1.8164062.1542969-2.5810547l19.9316406-28.9267578h-29.9013672L29.7585689,61.8687847Z"/>
      <rect class="cls-1" width="128" height="128"/>
    </g>
  </g>
</svg>