<?xml version="1.0" encoding="UTF-8"?>
<svg id="Layer_2" data-name="Layer 2" xmlns="http://www.w3.org/2000/svg" width="128" height="128" viewBox="0 0 128 128">
  <defs>
    <style>
      .cls-1 {
        fill: none;
      }

      .cls-1, .cls-2, .cls-3 {
        stroke-width: 0px;
      }

      .cls-2 {
        fill: #faaf40;
      }

      .cls-3 {
        fill: #1a1a1a;
      }
    </style>
  </defs>
  <g id="Layer_1-2" data-name="Layer 1">
    <g>
      <rect class="cls-1" width="128" height="128"/>
      <g>
        <path class="cls-2" d="M92.1807239,110.754837c-.4501953,0-.8945312-.1132812-1.3212891-.3378906l-21.2978516-11.1962891c-1.7080078-.8984375-3.6318359-1.3730469-5.5615234-1.3730469s-3.8535156.4746094-5.5625,1.3730469l-21.296875,11.1962891c-.4267578.2246094-.8710938.3378906-1.3212891.3378906-.8212891,0-1.6396484-.3876953-2.1875-1.0380859-.3789062-.4492188-.7919922-1.2119141-.6074219-2.2910156l4.0673828-23.7138672c.6660156-3.8779297-.6191406-7.8339844-3.4375-10.5800781l-17.2294922-16.7949219c-.7910156-.7705078-1.0585938-1.8574219-.7177734-2.9072266.3408203-1.0507812,1.1972656-1.7724609,2.2900391-1.9316406l23.8105469-3.4599609c3.8935547-.5654297,7.2578125-3.0097656,9-6.5380859l10.6494141-21.5761719c.4882812-.9902344,1.4394531-1.5810547,2.5429688-1.5810547s2.0546875.5908203,2.5429688,1.5810547l10.6494141,21.5761719c1.7402344,3.5283203,5.1044922,5.9726562,9,6.5380859l23.8105469,3.4599609c1.0927734.1591797,1.9492188.8808594,2.2900391,1.9316406.3408203,1.0498047.0732422,2.1367188-.7177734,2.9072266l-17.2304688,16.7949219c-2.8173828,2.7470703-4.1025391,6.7021484-3.4365234,10.5800781l4.0673828,23.7148438c.1845703,1.078125-.2285156,1.8398438-.6074219,2.2900391-.5478516.6494141-1.3662109,1.0380859-2.1875,1.0380859Z"/>
        <path class="cls-3" d="M64.0000599,20.8423004c.2091064,0,.260498.1040039.3017578.1876221l10.6486816,21.5765686c2.1055908,4.266449,6.1737061,7.2220764,10.8820801,7.90625l23.8110352,3.4599915c.0922852.0133972.2071533.0300598.2717285.2290649.0646973.1989746-.0184326.2799377-.0852051.3450317l-17.2297363,16.7949524c-3.4069824,3.3209229-4.9609375,8.1031799-4.1567383,12.7926636l4.0675049,23.7148438c.0234375.1361084.0023193.1887512-.053833.2553406-.0733643.0869751-.1898193.1500549-.2769775.1500549-.0407715,0-.09375-.0169678-.1575928-.0504761l-21.2973633-11.1967163c-2.0657959-1.0860901-4.3913574-1.6601868-6.7253418-1.6601868s-4.659668.5740967-6.7254639,1.6601868l-21.2974854,11.1967163c-.0637207.0335083-.1166992.0504761-.1574707.0504761-.0872803,0-.2038574-.0630493-.2770996-.1499023-.0560303-.0665588-.0771484-.1192322-.0537109-.2554321l4.0675049-23.7150269c.8041992-4.6893616-.7497559-9.4716187-4.1566162-12.7924805l-17.2298584-16.7950439c-.0667725-.0650635-.1499023-.1460266-.0852051-.3450012.0645752-.1990051.1794434-.2156677.2717285-.2290955l23.8110352-3.4599609c4.708374-.6841736,8.7764893-3.639801,10.8820801-7.906311l10.6486816-21.5764771c.0412598-.0836182.0926514-.1876526.3018799-.1876526M63.9999378,15.8423004c-1.9033203,0-3.8066406.9916077-4.7854004,2.9747925l-10.6486816,21.5765381c-1.3769531,2.7899475-4.0385742,4.7236938-7.1174316,5.1710815l-23.8110352,3.4599609c-4.3771973.6360168-6.125,6.0151672-2.9576416,9.1025696l17.2298584,16.7950134c2.2279053,2.1716309,3.2445068,5.3005066,2.7186279,8.3669434l-4.0675049,23.7149048c-.5915527,3.4494934,2.1491699,6.2505798,5.2589111,6.2505798.8203125,0,1.6669922-.1951904,2.4842529-.6248474l21.2973633-11.1966858c1.3768311-.723877,2.8878174-1.0858154,4.3986816-1.0858154,1.5109863,0,3.0218506.3619385,4.3988037,1.0858154l21.2973633,11.1966858c.8175049.4297791,1.6636963.6248474,2.4842529.6248474,3.1094971,0,5.8504639-2.8013611,5.2589111-6.2505798l-4.0675049-23.7149048c-.5258789-3.0664368.4907227-6.1953125,2.7186279-8.3669434l17.2298584-16.7950134c3.1673584-3.0874023,1.4195557-8.4665527-2.9576416-9.1025696l-23.8110352-3.4599609c-3.0788574-.4473877-5.7404785-2.381134-7.1174316-5.1710815l-10.6486816-21.5765381c-.9787598-1.9831848-2.8820801-2.9747925-4.7855225-2.9747925h0Z"/>
      </g>
      <rect class="cls-1" width="128" height="128"/>
    </g>
  </g>
</svg>