<?xml version="1.0" encoding="UTF-8"?>
<svg id="Layer_2" data-name="Layer 2" xmlns="http://www.w3.org/2000/svg" width="128" height="128" viewBox="0 0 128 128">
  <defs>
    <style>
      .cls-1 {
        fill: none;
      }

      .cls-1, .cls-2 {
        stroke-width: 0px;
      }

      .cls-2 {
        fill: #1a1a1a;
      }
    </style>
  </defs>
  <g id="Layer_1-2" data-name="Layer 1">
    <g>
      <rect class="cls-1" width="128" height="128"/>
      <g>
        <path class="cls-2" d="M64.0000387,20.8423004c.2092285,0,.2606201.1040955.3018799.1875916l10.6485596,21.5765991c2.1055908,4.266449,6.1737061,7.2220764,10.8820801,7.90625l23.8111572,3.4599609c.0922852.0133972.2070312.0300598.2716064.2290344.0646973.1990356-.0184326.2799988-.0852051.3450928l-17.2297363,16.7949524c-3.4069824,3.3209229-4.9609375,8.1031799-4.1567383,12.7926636l4.0675049,23.7148132c.0234375.1361084.0023193.1887817-.053833.2553711-.0733643.0869751-.1898193.1500549-.2769775.1500549-.0407715,0-.09375-.0169678-.1575928-.0504761l-21.2972412-11.1967163c-2.065918-1.0860901-4.3914795-1.6601868-6.7254639-1.6601868s-4.659668.5740967-6.7254639,1.6601868l-21.2974854,11.1967163c-.0637207.0335083-.1166992.0504761-.1574707.0504761-.0872803,0-.2037354-.0630493-.2769775-.1499023-.0560303-.0664978-.0771484-.1191101-.0537109-.2554626l4.0673828-23.7149963c.8041992-4.6893616-.7497559-9.4716187-4.1566162-12.7924805l-17.2299805-16.7950134c-.0666504-.065094-.1497803-.1460571-.085083-.3450317.0645752-.1990051.1794434-.2156677.2717285-.2290955l23.8111572-3.4599609c4.708252-.6841736,8.7762451-3.6397705,10.881958-7.906311l10.6486816-21.5764771c.0412598-.0836182.0926514-.1876526.3018799-.1876526M64.0000387,15.8423004c-1.9034424,0-3.8067627.9916077-4.7855225,2.9747925l-10.6486816,21.5765381c-1.3769531,2.7899475-4.0384521,4.7236938-7.1173096,5.1710815l-23.8111572,3.4599609c-4.3771973.6360168-6.125,6.0151672-2.9576416,9.1025696l17.2298584,16.7950134c2.2279053,2.1716309,3.2445068,5.3005066,2.7186279,8.3669434l-4.0673828,23.7149048c-.5916748,3.4494934,2.1490479,6.2505798,5.2587891,6.2505798.8203125,0,1.6669922-.1951904,2.4842529-.6248474l21.2973633-11.1966858c1.3769531-.723877,2.8878174-1.0858154,4.3988037-1.0858154,1.5108643,0,3.0218506.3619385,4.3986816,1.0858154l21.2973633,11.1966858c.8175049.4297791,1.6636963.6248474,2.4842529.6248474,3.1094971,0,5.8504639-2.8013611,5.2589111-6.2505798l-4.0675049-23.7149048c-.5258789-3.0664368.4907227-6.1953125,2.7186279-8.3669434l17.2298584-16.7950134c3.1673584-3.0874023,1.4195557-8.4665527-2.9575195-9.1025696l-23.8111572-3.4599609c-3.0788574-.4473877-5.7404785-2.381134-7.1174316-5.1710815l-10.6485596-21.5765381c-.9787598-1.9831848-2.8822021-2.9747925-4.7855225-2.9747925h0Z"/>
        <g>
          <path class="cls-2" d="M101.0404439,40.7569563c-1.3808594,0-2.5-1.1191406-2.5-2.5V12.6568587c0-1.3808594,1.1191406-2.5,2.5-2.5s2.5,1.1191406,2.5,2.5v25.6000977c0,1.3808594-1.1191406,2.5-2.5,2.5Z"/>
          <path class="cls-2" d="M113.8402486,27.9566634h-25.5996094c-1.3808594,0-2.5-1.1191406-2.5-2.5s1.1191406-2.5,2.5-2.5h25.5996094c1.3808594,0,2.5,1.1191406,2.5,2.5s-1.1191406,2.5-2.5,2.5Z"/>
        </g>
      </g>
      <rect class="cls-1" width="128" height="128"/>
    </g>
  </g>
</svg>