<?xml version="1.0" encoding="UTF-8"?>
<svg id="Layer_1" data-name="Layer 1" xmlns="http://www.w3.org/2000/svg" width="1024" height="1024" xmlns:xlink="http://www.w3.org/1999/xlink" viewBox="0 0 1024 1024">
  <defs>
    <style>
      .cls-1 {
        fill: #fdfefe;
      }

      .cls-1, .cls-2, .cls-3, .cls-4, .cls-5, .cls-6 {
        stroke-width: 0px;
      }

      .cls-7 {
        clip-path: url(#clippath);
      }

      .cls-2 {
        fill: none;
      }

      .cls-3 {
        fill: #02597f;
      }

      .cls-4 {
        fill: #faaf40;
      }

      .cls-5 {
        fill: #ec4237;
      }

      .cls-6 {
        fill: #fff;
      }
    </style>
    <clipPath id="clippath">
      <path class="cls-2" d="M508.9993528,959.6775647c-11.6813134,0-23.3627189-.5268891-34.9959068-1.5870677-11.6296241-1.0598538-23.2106537-2.6526724-34.6937778-4.7764421-11.4679097-2.1209559-22.8377467-4.7713963-34.0612604-7.9406677-5.4828605-1.5482383-11.1072867-3.0266253-16.427786-5.0738397-45.2633137-17.4163513-87.8214866-38.9219908-121.5561964-74.5337495-31.521678-33.2755905-54.2922872-75.0416936-63.8563784-119.9533011-8.2393242-38.6906909-7.4397732-79.2777877-.2748086-118.053599,10.9047246-59.0132642,35.7128711-115.180644,75.8420334-171.7101901,17.8515965-25.1473911,36.34246-50.4873263,54.2251285-74.9929034,21.9286432-30.0506459,44.6035224-61.1246284,66.3060026-92.1257701,43.8201019-62.5962161,92.1924984-136.4914139,112.4631222-222.3961731,13.9976565,60.5882553,41.9705571,119.2235625,90.5385541,189.8460185,41.3633807,60.1476449,85.0923043,120.1246489,127.3817308,178.1262921l7.6905611,10.5471425c26.5354411,36.4046039,46.4693672,71.1919386,60.9387061,106.3490803,16.2317803,39.4389576,25.2151381,78.311489,27.4655619,118.8374553,2.8708439,51.7189958-6.1797507,98.1853051-26.9021894,138.1061315-6.8103137,13.1197568-14.9080468,25.5580123-24.0589343,37.164086-9.5616257,12.1270132-20.2608173,23.3393892-31.7868075,33.6116798-6.0188235,5.3641469-12.2632111,10.4739987-18.6931845,15.3372685-6.4935576,4.9113612-13.1573594,10.0853295-20.3159913,13.9855773-15.7253805,8.567682-32.0216382,16.0892618-48.7382057,22.5111423-17.2160661,6.6183004-34.957603,11.9485355-52.7047011,16.9424453-9.7522898,2.7442264-19.620088,5.1440918-29.6359684,6.7080351-21.5527235,3.3649388-43.1349909,5.0713489-64.149304,5.0713489Z"/>
    </clipPath>
  </defs>
  <rect class="cls-6" width="1023.9999999" height="1024"/>
  <g class="cls-7">
    <g>
      <path class="cls-3" d="M336.31955,919.6743584c-4.5415553-1.7991226-9.4268057-3.0195032-13.5743253-5.4822549-100.7847871-59.8427236-145.103027-165.7063378-122.6897465-287.0012859,11.8424668-64.0884311,39.205129-120.6027127,76.367597-172.9532386,39.7530401-55.9997873,81.1385037-110.8476814,120.5197082-167.1026891,48.2458542-68.917959,93.2128377-139.7466122,112.4631171-223.3886647.197309-.8573856,1.183528-1.5331908,2.089845-2.6486665,1.2924091,1.2272687,2.9021432,2.0077675,3.1492105,3.0972213,15.9221629,70.2291844,50.2481099,131.9657075,90.4415195,190.4119399,43.8041415,63.6966085,89.4774774,126.123218,135.021945,188.6033595,49.5357008,67.9555943,84.2770916,141.7631357,89.0011869,226.8570779,5.8426767,105.2426616-36.5912037,186.3959215-125.7520082,242.8498689-2.8502419,1.8046202-6.5325362,2.2952138-9.8269214,3.3984669-5.7005769-8.0691226-.0338244-14.7184591,3.2958761-21.1174204,9.4813161-18.2212878,15.8205034-37.2893037,19.7293652-57.4905767,8.5290147-44.0781308-2.262275-84.7118569-20.4624603-124.2173576-20.0497653-43.5201214-50.5456342-79.7403225-81.1626373-115.8859794-17.0859834-20.1713156-36.1816302-38.6880777-51.1451555-60.5951068-10.9574765-16.0419901-20.1109847-32.8736355-20.8432877-53.2115573-.873471-24.2588964,9.8971792-40.7690237,31.4065654-51.0249449,3.5459717-1.6907774,7.9624792-1.9938225,10.4851927-6.1500305-3.112777-6.2253667-9.6009594-6.9039047-15.1748113-8.5911878-81.3492306-24.6252575-161.82923,46.4016947-148.0031552,130.3525492,2.1565853,13.0946549,5.6481864,25.8152847,8.6555067,38.6869595,3.1381919,13.4320137-1.1151804,17.9177534-14.9169585,16.6368989-18.4298279-1.7102753-36.6351148-1.5915638-54.2052158,5.0829779-6.5264096,2.4792446-13.6772661,4.1584909-17.8375048,10.5161269,1.1009704,4.5597713,5.0801833,4.9006243,8.190957,6.3163106,22.8611277,10.4039845,35.0250312,34.150064,30.0544977,58.8470469-3.5022935,17.4019546-12.4590051,32.0645055-22.8802995,46.0796873-11.8154562,15.8903394-24.8091292,31.0813616-31.4196106,50.2452133-13.940966,40.4150322-11.0624439,79.9883681,5.5064593,119.0459517,2.614729,6.1636814,8.3971414,12.1775292,3.5155483,19.8333046Z"/>
      <path class="cls-5" d="M336.31955,919.6743584c-5.5530727-15.1309676-12.236421-29.9549066-16.4470469-45.4506746-12.5749912-46.2775554-6.5367759-89.5696184,22.7985805-128.7251809,9.4358208-12.5946502,19.0573265-25.2909599,26.5521111-39.0526917,20.2484953-37.1795374,9.6058048-65.13955-29.5345756-80.8891873-2.235043-.8993749-4.234084-2.3852724-8.0167799-4.5608429,29.331536-24.1380884,61.8381167-25.1706177,97.3958124-19.1308659-4.003929-18.9678472-8.51767-36.3896958-11.2753606-54.0852611-13.5275721-86.8032857,67.3846668-158.4176922,151.7209744-134.2627383,9.2566587,2.6512552,17.7149496,8.0902046,30.5441828,14.1149544-7.7408967,2.6200631-10.4436344,3.5289191-13.142505,4.4492596-37.0004044,12.6171765-50.9826958,39.7350267-34.512121,75.2032638,9.655796,20.7930603,25.0956583,39.1320346,39.2680372,57.5479757,30.3548407,39.443862,64.2233662,76.454324,91.7652371,117.7232593,33.6698187,50.4511881,50.1947642,106.9418485,34.26729,168.2723797-4.6749427,18.0012894-13.5821757,34.8929894-20.3665779,52.36427-1.6427199,4.2303794-2.5586345,8.7430015-3.8074353,13.1245192.0013045-.0013045.211752-.0560013.211752-.0560013-1.5652872,1.7273739-4.3441531,1.1131302-5.8186362,3.0156828-11.4538473,5.4800186-22.9076945,10.9601304-34.3615418,16.4401489-4.9535514-6.587558-1.0037835-12.7063266,1.3371356-18.6422757,8.5463928-21.6718424,11.5918937-44.1181983,10.147135-67.2538079-1.2728412-20.3831607-8.6143677-38.051331-21.671706-52.4855906-8.2942006.7732556-9.4794059,6.5457201-12.3254081,10.4133957-21.4027415,29.0865141-51.0074817,36.9643378-84.9975142,32.3596537-14.1738698-1.9201636-16.9258066-10.408597-6.4114019-20.791383,14.4056089-14.225536,26.3460431-29.516494,30.7610131-49.7333747,9.123411-41.7776524-.7559708-79.5696164-24.3886537-114.2603117-10.1916752-14.9604945-21.6803718-28.8810984-37.436907-39.3695042-4.1939,7.9771538-.8060551,14.444323-.2193927,20.7460043,4.0373108,43.3674923-13.4598767,78.1204319-42.4316906,108.468652-20.6652204,21.6471031-43.237606,41.4051181-61.0215089,65.8707347-24.424132,33.6005339-30.5771453,69.9871082-20.44238,109.770938,1.8072994,7.0944581,6.6718638,14.1959979,1.1640534,21.7484365-15.3600535-6.6426275-30.720107-13.285255-46.0801605-19.9277893-1.1455105-1.0631857-2.0472384-2.3840145-3.405619-3.2222632l.1816082.2662157Z"/>
      <path class="cls-4" d="M385.6236981,942.5581952c-3.2412492-18.8691694-8.097637-37.6282931-9.3919097-56.6301511-2.8076585-41.2206679,18.8238403-72.5648908,45.0070743-101.2550631,18.1198873-19.8547826,37.6580701-38.4458558,55.2847315-58.7129607,25.6910796-29.5399288,36.402644-64.7581241,29.2279566-102.8835333-.8225946-4.3711746-1.2678695-6.6020593-2.3753395-14.1525688,37.7121612,25.1510965,62.4118969,59.1508609,71.5184423,104.1815725,9.441994,46.6895049-1.9492361,86.4049871-40.6199419,116.4496728,29.7599319,22.0692558,74.8286681,3.7762193,104.8384161-41.8841573,19.394662,15.919598,27.8262568,36.8278755,29.8917818,60.5849502,2.2777895,26.1987211-1.8978939,51.5513663-12.5383714,75.7698225-1.5890016,3.616788-1.9599519,7.7688029-2.8999535,11.6820903-26.6203189,7.5183347-52.8092137,17.7550142-79.9351283,21.9903322-63.5514905,9.9225692-126.6084738,5.6579927-188.0077584-15.1400061Z"/>
      <path class="cls-3" d="M687.9224892,919.2764791c1.9396386-1.0053208,3.8793238-2.0107347,5.818776-3.0158692-1.9396852,1.005414-3.8792306,2.0106416-5.818776,3.0158692Z"/>
      <path class="cls-3" d="M336.1379418,919.4081427c1.1339562,1.073715,2.2679124,2.1475232,3.4037321,3.2217041-1.1333272-1.0735287-2.268518-2.1476164-3.4037321-3.2217041Z"/>
      <polygon class="cls-1" points="644.0037536 471.3003841 665.2959273 463.4402711 652.6902557 482.314462 666.7453109 500.1356141 644.8995219 493.9793537 632.29385 512.8535444 631.3980815 490.1745754 609.5522926 484.0183146 630.8444662 476.1582013 629.9486981 453.4792322 644.0037536 471.3003841"/>
    </g>
  </g>
</svg>